
Genre:Action | Crime | Mystery
Language:English
IMDb:http://www.imdb.com/title/tt1020055/
Source:1080p.Bluray.x264.DTS-CHD
Subtitles:Romana



Format : Matroska
File size : 1.66 GiB
Duration : 1h 30mn
Overall bit rate : 2 621 Kbps


Video
Format settings, CABAC : Yes
Format settings, ReFrames : 4 frames
Format settings, GOP : M=4, N=16
Codec ID : V_MPEG4/ISO/AVC
Duration : 1h 30mn
Bit rate : 2 185 Kbps
Nominal bit rate : 2 300 Kbps
Width : 1 280 pixels
Height : 720 pixels
Display aspect ratio : 16:9
Frame rate mode : Variable
Frame rate : 23.976 fps
Color space : YUV
Chroma subsampling : 4:2:0
Bit depth : 8 bits
Scan type : Progressive
Bits/(Pixel*Frame) : 0.099
Stream size : 1.38 GiB (83%)
Writing library : x264 core 106 r1732 b20059a


Audio
ID : 2
Format : AC-3
Format/Info : Audio Coding 3
Mode extension : CM (complete main)
Codec ID : A_AC3
Duration : 1h 30mn
Bit rate mode : Constant
Bit rate : 384 Kbps
Channel(s) : 6 channels
Channel positions : Front: L C R, Side: L R, LFE
Sampling rate : 48.0 KHz
Bit depth : 16 bits
Video delay : -1mn 5s
Stream size : 249 MiB (15%)
Language : English


Plot:
Two Passengers and the conductor discover that a person has passed away on their Night Train cabin. They come across valuable diamonds on his person

 
http://shareimage.org/images/zu5343b1afzj4alndz7.png
 
http://shareimage.org/images/y6hbo8y2ml54saal79pr.png
 
http://shareimage.org/images/mctrzc0tftml9xecykx.png
 
http://shareimage.org/images/tbsb2xc6z5u041d4tb0h.png
 
http://shareimage.org/images/xpo396w47ogkcdby59n0.png